PathFileType	4	(X/Y/Z)	/Users/itak/Documents/Research/Walk-IL/dataset/trc/00208_00009.trc
DataRate	CameraRate	NumFrames	NumMarkers	Units	OrigDataRate	OrigDataStartFrame	OrigNumFrames
100.000000	100.000000	4	53	mm	100.000000	590	787
Frame#	Time	RPSI			LPSI			L3			STRN			T10			C7			CLAV			RBAK			LBAK			LSHO			LUPA			LAEL			LAOL			LWTS			LWPS			LFRA			LIFD			LHPS			LHTS			RSHO			RUPA			RAEL			RAOL			RWTS			RWPS			RFRA			RIFD			RHTS			RHPS			RBHD			LFHD			RFHD			LBHD			LHIP			RHIP			RASI			LASI			LKNE			LTHI			LANK			LTIP			LTOE			LMT1			LMT5			LHEE			RKNE			RTHI			RANK			RTIP			RTOE			RMT1			RMT5			RHEE			
		X1	Y1	Z1	X2	Y2	Z2	X3	Y3	Z3	X4	Y4	Z4	X5	Y5	Z5	X6	Y6	Z6	X7	Y7	Z7	X8	Y8	Z8	X9	Y9	Z9	X10	Y10	Z10	X11	Y11	Z11	X12	Y12	Z12	X13	Y13	Z13	X14	Y14	Z14	X15	Y15	Z15	X16	Y16	Z16	X17	Y17	Z17	X18	Y18	Z18	X19	Y19	Z19	X20	Y20	Z20	X21	Y21	Z21	X22	Y22	Z22	X23	Y23	Z23	X24	Y24	Z24	X25	Y25	Z25	X26	Y26	Z26	X27	Y27	Z27	X28	Y28	Z28	X29	Y29	Z29	X30	Y30	Z30	X31	Y31	Z31	X32	Y32	Z32	X33	Y33	Z33	X34	Y34	Z34	X35	Y35	Z35	X36	Y36	Z36	X37	Y37	Z37	X38	Y38	Z38	X39	Y39	Z39	X40	Y40	Z40	X41	Y41	Z41	X42	Y42	Z42	X43	Y43	Z43	X44	Y44	Z44	X45	Y45	Z45	X46	Y46	Z46	X47	Y47	Z47	X48	Y48	Z48	X49	Y49	Z49	X50	Y50	Z50	X51	Y51	Z51	X52	Y52	Z52	X53	Y53	Z53	

591	5.9	274.8316955566406	1037.8271484375	-26.63418197631836	278.368408203125	1040.614868164062	-147.178466796875	272.495361328125	1116.464111328125	-105.7118606567383	513.2649536132812	1309.599731445312	-105.304084777832	259.8066711425781	1244.78125	-97.47795867919922	316.7579345703125	1507.97119140625	-100.1483764648438	484.2390441894531	1426.114501953125	-103.2781600952148	243.9434967041016	1366.616577148438	-27.81579399108887	296.6005859375	1470.7890625	-209.9391326904297	384.9091491699219	1476.006958007812	-268.7641906738281	350.5939025878906	1358.783813476562	-347.545166015625	353.6521606445312	1151.957885742188	-382.9751281738281	285.1648254394531	1136.367309570312	-329.3670959472656	436.4868774414062	911.5487060546875	-349.0871276855469	403.533203125	901.97509765625	-425.8175354003906	369.883544921875	1045.6875	-404.855224609375	433.5508117675781	715.4381103515625	-373.3574523925781	415.0294189453125	812.3804321289062	-428.5369873046875	462.4562377929688	810.727294921875	-379.4829406738281	378.6575927734375	1465.289184570312	66.79650115966797	361.523681640625	1400.419555664062	133.3827209472656	354.2400512695312	1120.285766601562	180.6754608154297	319.65869140625	1110.711547851562	92.98965454101562	511.4683227539062	921.6295166015625	128.7568664550781	465.4109191894531	900.8643798828125	196.0147247314453	388.9218444824219	1053.844604492188	192.4056396484375	554.3148193359375	729.86962890625	124.769775390625	566.5545654296875	806.33935546875	140.0980987548828	518.1792602539062	799.52490234375	193.8654937744141	348.1011657714844	1659.551635742188	-48.43001556396484	548.53955078125	1719.185913085938	-137.9846343994141	545.9219360351562	1716.990356445312	-37.81561279296875	395.6828002929688	1671.888549804688	-179.5709991455078	379.4052734375	973.9539794921875	-285.469482421875	374.2066650390625	1002.797973632812	80.24781036376953	469.2161560058594	1044.11474609375	42.25027465820312	480.4097595214844	1019.180236816406	-239.1179351806641	405.6127014160156	488.4239807128906	-259.9425659179688	409.1691589355469	634.585693359375	-279.0570373535156	54.64699172973633	137.1805114746094	-238.6155395507812	238.3919830322266	323.2594909667969	-260.6505737304688	214.87060546875	32.42515182495117	-151.3504638671875	158.1383819580078	66.71210479736328	-120.3283309936523	145.8623809814453	49.39370727539062	-231.7326812744141	14.05335330963135	194.8087615966797	-198.1543121337891	489.4757080078125	518.4827270507812	29.70473289489746	460.5798645019531	784.2105712890625	86.11104583740234	456.0831604003906	31.68016052246094	-12.6105260848999	510.2680053710938	400.4345397949219	3.251453399658203	667.0020751953125	38.78334045410156	-65.832763671875	607.284423828125	37.68270874023438	-103.5666275024414	565.9338989257812	31.9492359161377	10.16723918914795	393.6073303222656	32.07334518432617	-70.35783386230469	
592	5.91	279.3971557617188	1038.1220703125	-25.33930587768555	282.505615234375	1040.766357421875	-145.8948059082031	276.7857971191406	1116.787231445312	-104.3749389648438	517.6156005859375	1309.740600585938	-104.5028457641602	264.1889343261719	1245.088745117188	-96.14822387695312	321.2978515625	1508.268188476562	-98.80069732666016	488.6836853027344	1426.27392578125	-102.3670806884766	248.4948272705078	1366.926879882812	-26.33614349365234	300.8247680664062	1471.179321289062	-208.5924530029297	389.0169372558594	1476.347900390625	-267.5693664550781	354.5278625488281	1359.117309570312	-346.2387390136719	357.7599792480469	1152.450805664062	-382.0755310058594	289.6127014160156	1136.590698242188	-328.1028137207031	441.4818725585938	912.235107421875	-349.28173828125	408.0189514160156	902.7311401367188	-425.7938842773438	374.1213684082031	1046.302978515625	-404.2947387695312	439.0314636230469	716.1948852539062	-374.0718383789062	419.7366638183594	813.2040405273438	-428.8091735839844	467.5509033203125	811.5991821289062	-380.1434631347656	383.5722045898438	1465.460571289062	67.95005798339844	366.6771240234375	1400.604858398438	134.5914916992188	360.0390625	1120.402954101562	181.9064788818359	324.9592895507812	1110.795654296875	94.42512512207031	517.9738159179688	922.65283203125	128.9231567382812	472.3536987304688	901.4835205078125	196.3480682373047	395.13134765625	1054.0673828125	193.4048309326172	561.9546508789062	731.1929931640625	124.3350219726562	573.7962036132812	807.6976318359375	139.7704010009766	525.7696533203125	800.4873657226562	193.7638397216797	352.7653503417969	1659.795654296875	-47.26077270507812	553.1887817382812	1719.357788085938	-136.9492492675781	550.6155395507812	1717.123291015625	-36.74747848510742	400.2223510742188	1672.132202148438	-178.3785247802734	383.3285827636719	974.0653686523438	-284.3158264160156	378.9356384277344	1003.079833984375	81.33753204345703	473.8621520996094	1044.391479492188	43.19802093505859	484.3264465332031	1019.465637207031	-238.18505859375	416.3937377929688	488.4715270996094	-261.2322082519531	417.64404296875	634.8341674804688	-279.4176635742188	60.25434494018555	143.0607604980469	-239.730224609375	247.6553039550781	325.4684448242188	-261.732177734375	217.033203125	31.86542892456055	-152.1082611083984	161.5257568359375	69.65821075439453	-121.2926635742188	148.6167297363281	52.13464736938477	-232.3815002441406	21.13313484191895	201.7297668457031	-199.541748046875	491.6793823242188	518.2228393554688	30.29377555847168	464.5593566894531	784.1881103515625	86.9163818359375	456.1038818359375	31.57464790344238	-12.73283863067627	511.8541564941406	400.1041259765625	3.692080020904541	667.0635375976562	38.70881271362305	-65.76190948486328	607.3604125976562	37.62182998657227	-103.5925140380859	565.9226684570312	31.86919403076172	10.25518894195557	393.6083679199219	32.1335563659668	-70.37151336669922	
593	5.92	283.82763671875	1038.4091796875	-24.03561401367188	286.4675598144531	1040.895263671875	-144.5931396484375	280.9161682128906	1117.143920898438	-103.0114212036133	521.8627319335938	1309.87646484375	-103.7713394165039	268.4654235839844	1245.427612304688	-94.78219604492188	325.7571105957031	1508.580200195312	-97.46871948242188	493.0336303710938	1426.432861328125	-101.5176086425781	252.9938507080078	1367.257568359375	-24.84074211120605	304.9469909667969	1471.5966796875	-207.2692413330078	393.0078430175781	1476.713256835938	-266.406494140625	358.3816223144531	1359.49755859375	-344.9882507324219	361.8163757324219	1152.955078125	-381.1891784667969	294.0054016113281	1136.8125	-326.8716430664062	446.593505859375	913.023193359375	-349.4039306640625	412.6209106445312	903.514404296875	-425.6920471191406	378.3652954101562	1046.930419921875	-403.7146911621094	444.8299560546875	717.0457153320312	-374.6218566894531	424.6518859863281	814.0634155273438	-428.9588928222656	472.8587036132812	812.5867919921875	-380.6957092285156	388.4486694335938	1465.637329101562	69.0670166015625	371.8091735839844	1400.79345703125	135.7645568847656	365.7825622558594	1120.522827148438	183.0741882324219	330.2582702636719	1110.876342773438	95.78215789794922	524.3301391601562	923.586181640625	129.1224365234375	479.1039428710938	902.0625	196.6911926269531	401.2433471679688	1054.285034179688	194.3623809814453	569.3086547851562	732.3939819335938	123.9965438842773	580.7955932617188	808.932373046875	139.5177917480469	533.107666015625	801.3760375976562	193.7266998291016	357.3649291992188	1660.04833984375	-46.12300109863281	557.7678833007812	1719.527587890625	-135.9635467529297	555.2485961914062	1717.247924804688	-35.72507858276367	404.6632995605469	1672.385620117188	-177.2209167480469	387.0173645019531	974.1990356445312	-283.2013549804688	383.5790100097656	1003.351013183594	82.37789154052734	478.3933715820312	1044.662719726562	44.08340454101562	488.0121459960938	1019.779968261719	-237.3211059570312	427.2580871582031	488.6531372070312	-262.3619079589844	426.1397705078125	635.1740112304688	-279.694580078125	66.20093536376953	148.9738006591797	-240.7775421142578	257.1273498535156	327.7283325195312	-262.710693359375	219.7525482177734	31.48387145996094	-153.03759765625	165.4996795654297	72.83039855957031	-122.4081573486328	151.7343292236328	55.12862396240234	-233.1210021972656	28.50224304199219	208.5357666015625	-200.7959289550781	493.6950988769531	517.9598388671875	30.8578987121582	468.3803100585938	784.1578979492188	87.66676330566406	456.1303100585938	31.46933937072754	-12.9049768447876	513.26708984375	399.7882385253906	4.121493816375732	667.11376953125	38.62785720825195	-65.68235015869141	607.4445190429688	37.57991790771484	-103.6245651245117	565.9031372070312	31.7823600769043	10.34897804260254	393.6069641113281	32.19119644165039	-70.39058685302734	
594	5.93	288.1256408691406	1038.69091796875	-22.74025917053223	290.2572631835938	1040.998168945312	-143.2931518554688	284.8872375488281	1117.529174804688	-101.6304626464844	526.0052490234375	1310.008544921875	-103.1103973388672	272.6399841308594	1245.798461914062	-93.37978363037109	330.1325073242188	1508.9072265625	-96.15287017822266	497.2853393554688	1426.593383789062	-100.7316360473633	257.4474792480469	1367.60986328125	-23.32811737060547	308.96533203125	1472.03515625	-205.9650115966797	396.8759460449219	1477.099365234375	-265.2771301269531	362.1474609375	1359.921752929688	-343.7947692871094	365.8240051269531	1153.46875	-380.3282775878906	298.3284606933594	1137.035278320312	-325.7041931152344	451.8039245605469	913.9103393554688	-349.4347229003906	417.3467102050781	904.32421875	-425.5076293945312	382.6205139160156	1047.567749023438	-403.1222229003906	450.9157104492188	717.9861450195312	-374.9895935058594	429.7833251953125	814.9559936523438	-428.9774169921875	478.3641357421875	813.6853637695312	-381.1101989746094	393.294189453125	1465.820678710938	70.14946746826172	376.9165954589844	1400.986083984375	136.9017028808594	371.47021484375	1120.646118164062	184.1787414550781	335.5529174804688	1110.956176757812	97.06733703613281	530.5309448242188	924.4234619140625	129.345703125	485.6594848632812	902.59521484375	197.0426940917969	407.2474365234375	1054.497924804688	195.2859039306641	576.3758544921875	733.4646606445312	123.754280090332	587.5619506835938	810.0369873046875	139.3420562744141	540.1853637695312	802.1812133789062	193.7499237060547	361.8937377929688	1660.308349609375	-45.01852416992188	562.2734985351562	1719.698608398438	-135.0201263427734	559.8163452148438	1717.367919921875	-34.74887084960938	409.0116882324219	1672.650268554688	-176.1045989990234	390.4937744140625	974.351806640625	-282.1378479003906	388.1510314941406	1003.623596191406	83.359375	482.8110046386719	1044.929809570312	44.90529251098633	491.4859313964844	1020.124145507812	-236.5264434814453	438.1429443359375	488.986083984375	-263.3278503417969	434.6100769042969	635.6129760742188	-279.8962707519531	72.49491119384766	154.7980346679688	-241.7488861083984	266.7316589355469	330.0412902832031	-263.5832214355469	223.1745452880859	31.38567543029785	-154.1792755126953	170.1913757324219	76.19132995605469	-123.6692428588867	155.3478088378906	58.32587432861328	-233.9886016845703	36.12519836425781	215.0898895263672	-201.8925628662109	495.5108032226562	517.6947021484375	31.39757537841797	472.0387878417969	784.1167602539062	88.36178588867188	456.1562194824219	31.3756160736084	-13.10894584655762	514.4901733398438	399.4925537109375	4.541992664337158	667.1532592773438	38.54423904418945	-65.5960693359375	607.5363159179688	37.56119918823242	-103.6639099121094	565.8782348632812	31.68963432312012	10.43927192687988	393.6001586914062	32.24075698852539	-70.41104125976562	
